#!OML:ASF F:\VICON\USERDATA\INSTALL\rory3\rory3.ASF
:FULLY-SPECIFIED
:DEGREES
789
root -3.23665 17.9283 1.88333 9.09593 -10.0502 2.17101
lowerback 7.28083 2.0719 -0.626853
upperback 3.18715 2.73458 2.51308
thorax -0.940818 1.34223 2.72124
lowerneck -16.4067 3.8667 -6.43799
upperneck 37.2083 9.5756 -3.73261
head 15.9722 2.55367 1.23431
rclavicle 4.92986e-014 3.18055e-015
rhumerus -34.3335 16.4377 -86.5213
rradius 45.0281
rwrist 18.6851
rhand -18.237 12.4164
rfingers 7.12502
rthumb 8.04156 -17.4106
lclavicle 4.92986e-014 3.18055e-015
lhumerus -37.8206 4.0096 85.8288
lradius 51.9909
lwrist -6.20477
lhand -18.9189 23.1328
lfingers 7.12502
lthumb 7.38345 52.984
rfemur -13.6028 -5.96374 16.53
rtibia 29.9322
rfoot -27.8398 -19.5239
rtoes 0.16717
lfemur -32.9232 16.5106 -24.0161
ltibia 23.5979
lfoot 5.8491 18.6599
ltoes -12.7106
790
root -3.19486 17.9127 1.96756 9.28908 -9.16784 2.01523
lowerback 7.01402 1.95269 -0.609812
upperback 3.01054 2.58137 2.52829
thorax -0.967149 1.26825 2.74531
lowerneck -16.476 3.88498 -6.45209
upperneck 37.2001 9.59145 -3.64672
head 15.9753 2.57115 1.27873
rclavicle -1.27222e-014 3.18055e-015
rhumerus -34.4314 15.5892 -86.1898
rradius 44.616
rwrist 18.3268
rhand -18.8214 11.9499
rfingers 7.12502
rthumb 7.4775 -17.8979
lclavicle -1.27222e-014 3.18055e-015
lhumerus -37.9439 4.54449 85.5156
lradius 50.7873
lwrist -5.9848
lhand -19.1086 23.072
lfingers 7.12502
lthumb 7.20035 52.9295
rfemur -13.4122 -6.06754 16.5666
rtibia 30.1595
rfoot -28.2376 -19.8532
rtoes -0.338314
lfemur -32.4171 16.5243 -24.4857
ltibia 22.6707
lfoot 5.55918 19.203
ltoes -11.1669
791
root -3.14924 17.9043 2.05151 9.42153 -8.24419 1.92731
lowerback 6.76619 1.84646 -0.590657
upperback 2.93579 2.44224 2.49059
thorax -0.897134 1.1998 2.71311
lowerneck -16.7205 3.88165 -6.3387
upperneck 37.178 9.57723 -3.62744
head 16.0262 2.57978 1.27421
rclavicle 3.81667e-014 1.43125e-014
rhumerus -34.3988 14.5496 -85.8147
rradius 44.1751
rwrist 17.8555
rhand -18.8977 11.5672
rfingers 7.12502
rthumb 7.40393 -18.2833
lclavicle 3.81667e-014 1.43125e-014
lhumerus -37.7674 5.05917 85.1882
lradius 49.489
lwrist -5.77941
lhand -19.6674 22.368
lfingers 7.12502
lthumb 6.66091 52.2432
rfemur -13.1716 -6.28148 16.5142
rtibia 30.3852
rfoot -28.3767 -20.2997
rtoes -1.8016
lfemur -31.8305 16.0075 -24.7434
ltibia 21.8714
lfoot 4.99926 19.219
ltoes -11.0077
792
root -3.1023 17.8987 2.12964 9.55845 -7.26344 1.84622
lowerback 6.65293 1.71859 -0.604958
upperback 2.83547 2.27362 2.46451
thorax -0.9284 1.11723 2.70874
lowerneck -17.0452 3.89041 -6.17897
upperneck 37.1895 9.5924 -3.64612
head 16.1194 2.59679 1.25404
rclavicle 0 -6.36111e-015
rhumerus -34.2891 13.5201 -85.4259
rradius 43.6633
rwrist 17.3619
rhand -18.9537 11.2687
rfingers 7.12502
rthumb 7.34981 -18.5836
lclavicle 0 -6.36111e-015
lhumerus -37.5303 5.47564 84.8882
lradius 47.965
lwrist -5.79249
lhand -20.1517 21.8826
lfingers 7.12502
lthumb 6.19333 51.7721
rfemur -12.9401 -6.38017 16.465
rtibia 30.5735
rfoot -28.5533 -20.82
rtoes -3.04075
lfemur -31.3421 15.207 -24.8817
ltibia 21.1529
lfoot 4.36881 18.6436
ltoes -11.1501
793
root -3.05468 17.8958 2.20762 9.71708 -6.1757 1.76221
lowerback 6.55831 1.53743 -0.694013
upperback 2.70584 2.03179 2.53292
thorax -1.00217 0.997972 2.84844
lowerneck -17.366 3.91234 -6.22666
upperneck 37.2483 9.6667 -3.57147
head 16.2174 2.6202 1.31951
rclavicle -1.11319e-014 -5.56597e-015
rhumerus -34.1586 12.6615 -84.9186
rradius 43.1278
rwrist 16.9749
rhand -19.3343 10.9923
rfingers 7.12502
rthumb 6.98242 -18.8726
lclavicle -1.11319e-014 -5.56597e-015
lhumerus -37.3028 5.99246 84.6775
lradius 46.2868
lwrist -6.0091
lhand -20.4659 21.6164
lfingers 7.12502
lthumb 5.88999 51.5146
rfemur -12.7121 -6.47837 16.4361
rtibia 30.7231
rfoot -28.7025 -21.3621
rtoes -3.66465
lfemur -30.9219 13.9506 -24.7976
ltibia 20.4967
lfoot 3.9405 18.8044
ltoes -9.79335
794
root -3.00466 17.8917 2.29338 9.81877 -5.00946 1.67832
lowerback 6.35855 1.35113 -0.742449
upperback 2.64079 1.78407 2.62609
thorax -0.948827 0.874372 2.99444
lowerneck -17.5199 3.93649 -6.3153
upperneck 37.1879 9.76 -3.57975
head 16.2196 2.64694 1.353
rclavicle -1.74931e-014 -2.14687e-014
rhumerus -34.0524 11.5918 -84.2769
rradius 42.6397
rwrist 16.8415
rhand -19.7964 10.5919
rfingers 7.12502
rthumb 6.53641 -19.2872
lclavicle -1.74931e-014 -2.14687e-014
lhumerus -36.9429 6.54251 84.5226
lradius 44.7485
lwrist -5.75946
lhand -19.8599 21.858
lfingers 7.12502
lthumb 6.4751 51.739
rfemur -12.3661 -6.84918 16.3921
rtibia 30.8646
rfoot -28.7149 -21.7157
rtoes -4.00814
lfemur -30.4132 12.3659 -24.5523
ltibia 19.9094
lfoot 3.81316 19.768
ltoes -6.80881
795
root -2.95289 17.8908 2.38403 9.80934 -3.86902 1.53037
lowerback 6.18862 1.1861 -0.666427
upperback 2.59941 1.57069 2.68407
thorax -0.884221 0.768227 3.02993
lowerneck -17.437 3.95907 -6.25687
upperneck 37.0203 9.79822 -3.68889
head 16.1264 2.67102 1.29947
rclavicle 6.75868e-015 2.46493e-014
rhumerus -34.0504 10.3923 -83.7159
rradius 42.1811
rwrist 16.5838
rhand -20.158 9.72372
rfingers 7.12502
rthumb 6.18725 -20.1659
lclavicle 6.75868e-015 2.46493e-014
lhumerus -36.668 7.00027 84.2791
lradius 43.2527
lwrist -5.47366
lhand -18.8662 22.1761
lfingers 7.12502
lthumb 7.43428 52.0254
rfemur -11.8856 -7.26768 16.3981
rtibia 31.0574
rfoot -29.0424 -21.7176
rtoes -3.353
lfemur -29.8055 10.9837 -24.2924
ltibia 19.3676
lfoot 3.65599 20.3465
ltoes -2.14143
796
root -2.90006 17.8908 2.47401 9.76701 -2.7958 1.34884
lowerback 6.18433 1.06505 -0.548603
upperback 2.48485 1.42029 2.72292
thorax -0.989238 0.695787 3.0132
lowerneck -17.3916 3.96266 -6.23054
upperneck 37.019 9.78806 -3.65643
head 16.1128 2.67979 1.30638
rclavicle 2.3059e-014 1.98785e-014
rhumerus -34.159 9.19164 -83.1971
rradius 41.7215
rwrist 15.9917
rhand -20.4222 8.88348
rfingers 7.12502
rthumb 5.93221 -21.0135
lclavicle 2.3059e-014 1.98785e-014
lhumerus -36.5082 7.41706 83.9671
lradius 41.444
lwrist -5.68095
lhand -18.415 22.0419
lfingers 7.12502
lthumb 7.86983 51.8754
rfemur -11.4483 -7.58298 16.438
rtibia 31.3801
rfoot -29.467 -21.7179
rtoes -2.59193
lfemur -29.3214 9.9449 -24.1054
ltibia 18.8967
lfoot 3.83452 19.8614
ltoes -0.163686
797
root -2.84296 17.8846 2.56099 9.63661 -1.69537 1.35244
lowerback 6.29989 0.961242 -0.597965
upperback 2.40888 1.28294 2.72879
thorax -1.12501 0.62915 3.05462
lowerneck -17.3631 3.96314 -6.20414
upperneck 36.9998 9.7797 -3.63822
head 16.0955 2.68837 1.30806
rclavicle 1.07344e-014 3.81667e-014
rhumerus -34.2168 7.95907 -82.5854
rradius 41.2875
rwrist 15.0933
rhand -21.3257 8.67988
rfingers 7.12502
rthumb 5.05988 -21.2397
lclavicle 1.07344e-014 3.81667e-014
lhumerus -36.2243 7.77517 83.7327
lradius 39.6019
lwrist -5.97193
lhand -17.7878 22.4569
lfingers 7.12502
lthumb 8.47515 52.2668
rfemur -11.021 -7.97599 16.2597
rtibia 31.8583
rfoot -29.7086 -21.8281
rtoes -2.76251
lfemur -28.8392 9.16297 -24.2207
ltibia 18.5258
lfoot 4.08643 18.69
ltoes -1.17891
798
root -2.78055 17.8711 2.6457 9.46657 -0.611946 1.40594
lowerback 6.36547 0.874139 -0.655804
upperback 2.43881 1.16426 2.71977
thorax -1.12464 0.569779 3.08611
lowerneck -17.4372 3.92307 -6.2793
upperneck 36.9508 9.73421 -3.57053
head 16.0789 2.67333 1.3443
rclavicle 7.55382e-015 6.36111e-015
rhumerus -34.152 6.39476 -81.8475
rradius 40.8298
rwrist 14.5761
rhand -20.1754 6.63225
rfingers 7.12502
rthumb 6.1705 -23.2579
lclavicle 7.55382e-015 6.36111e-015
lhumerus -35.7446 8.1969 83.5331
lradius 37.8912
lwrist -6.43316
lhand -16.5862 23.4268
lfingers 7.12502
lthumb 9.63457 53.1865
rfemur -10.6574 -8.45268 16.0147
rtibia 32.4834
rfoot -29.6306 -22.1326
rtoes -3.74423
lfemur -28.2741 8.63949 -24.5032
ltibia 18.2212
lfoot 4.0558 17.9101
ltoes -1.71497
799
root -2.70929 17.8591 2.73127 9.48229 0.343733 1.37264
lowerback 6.19925 0.826954 -0.537948
upperback 2.41419 1.10797 2.69543
thorax -1.05173 0.542068 3.00026
lowerneck -17.4444 3.88423 -6.36235
upperneck 36.8871 9.69053 -3.51821
head 16.0399 2.65892 1.37312
rclavicle -1.19271e-014 -4.77083e-015
rhumerus -34.1867 4.53591 -81.0456
rradius 40.3333
rwrist 14.4912
rhand -20.453 5.83296
rfingers 7.12502
rthumb 5.9025 -24.0648
lclavicle -1.19271e-014 -4.77083e-015
lhumerus -35.3212 8.87388 83.2239
lradius 36.3269
lwrist -7.33199
lhand -15.3746 24.3922
lfingers 7.12502
lthumb 10.8034 54.0944
rfemur -10.5668 -8.94921 15.8227
rtibia 33.1831
rfoot -29.3612 -22.285
rtoes -4.22648
lfemur -27.9369 8.08903 -24.7292
ltibia 18.0286
lfoot 3.98287 17.5859
ltoes -1.27894
800
root -2.6329 17.8576 2.81735 9.59857 1.21285 1.37003
lowerback 5.9506 0.828522 -0.409291
upperback 2.3336 1.11652 2.64003
thorax -0.993528 0.547472 2.87206
lowerneck -17.3656 3.83444 -6.42235
upperneck 36.8009 9.61652 -3.48121
head 15.9719 2.6373 1.383
rclavicle 7.55382e-015 8.74653e-015
rhumerus -34.2772 2.80456 -80.284
rradius 39.7403
rwrist 14.2658
rhand -21.2267 5.43812
rfingers 7.12502
rthumb 5.15549 -24.4792
lclavicle 7.55382e-015 8.74653e-015
lhumerus -34.9716 9.41255 82.9252
lradius 34.8578
lwrist -8.11182
lhand -14.6681 25.0373
lfingers 7.12502
lthumb 11.4848 54.7027
rfemur -10.5972 -9.46607 15.5692
rtibia 33.904
rfoot -28.9386 -22.3639
rtoes -4.6659
lfemur -27.8134 7.76377 -25.0851
ltibia 17.9695
lfoot 3.61433 16.8167
ltoes -0.552866
801
root -2.5639 17.86 2.90098 9.50706 1.92943 1.27309
lowerback 5.93854 0.881396 -0.365318
upperback 2.2959 1.19077 2.66029
thorax -1.02913 0.58544 2.86293
lowerneck -17.257 3.77492 -6.54957
upperneck 36.8059 9.52888 -3.36993
head 15.9335 2.60677 1.43337
rclavicle 2.18663e-014 -1.11319e-014
rhumerus -34.4215 1.31446 -79.5412
rradius 39.1804
rwrist 14.0923
rhand -21.7899 4.72681
rfingers 7.12502
rthumb 4.61162 -25.203
lclavicle 2.18663e-014 -1.11319e-014
lhumerus -34.6531 9.9686 82.6373
lradius 33.4195
lwrist -8.70736
lhand -14.278 25.715
lfingers 7.12502
lthumb 11.8611 55.3591
rfemur -10.441 -9.80297 15.4023
rtibia 34.5998
rfoot -28.3709 -22.6199
rtoes -5.55353
lfemur -27.5358 7.71623 -25.3007
ltibia 18.0085
lfoot 3.01292 16.1098
ltoes 0.422442
802
root -2.4993 17.8627 2.98733 9.34261 2.47865 1.18749
lowerback 5.95987 0.980364 -0.487768
upperback 2.27794 1.31711 2.69278
thorax -1.06955 0.648724 2.95639
lowerneck -17.1159 3.79062 -6.5006
upperneck 36.84 9.55781 -3.42103
head 15.9239 2.62463 1.40557
rclavicle 8.74653e-015 -1.82882e-014
rhumerus -34.661 -0.0702694 -78.8232
rradius 38.7266
rwrist 13.9297
rhand -22.3433 3.97713
rfingers 7.12502
rthumb 4.07722 -25.9636
lclavicle 8.74653e-015 -1.82882e-014
lhumerus -34.4678 10.4905 82.341
lradius 32.1989
lwrist -9.30311
lhand -13.8935 26.4246
lfingers 7.12502
lthumb 12.2318 56.0469
rfemur -10.2373 -9.92429 15.2136
rtibia 35.2821
rfoot -27.9867 -22.8483
rtoes -5.38387
lfemur -27.1889 7.86055 -25.532
ltibia 18.1118
lfoot 2.68499 15.5444
ltoes 0.735254
803
root -2.42866 17.8712 3.07707 9.2996 3.05521 1.133
lowerback 5.7588 1.07833 -0.494323
upperback 2.28018 1.44483 2.64037
thorax -0.961324 0.711985 2.90035
lowerneck -17.042 3.82769 -6.3154
upperneck 36.8975 9.60819 -3.53391
head 15.9541 2.65785 1.33531
rclavicle -1.86858e-014 -5.56597e-015
rhumerus -34.783 -1.36519 -78.2132
rradius 38.1912
rwrist 13.5925
rhand -23.1223 3.31256
rfingers 7.12502
rthumb 3.32497 -26.6413
lclavicle -1.86858e-014 -5.56597e-015
lhumerus -34.2087 11.2184 81.9166
lradius 31.0422
lwrist -10.2054
lhand -13.6016 26.7723
lfingers 7.12502
lthumb 12.5132 56.3777
rfemur -10.1632 -10.1948 14.9663
rtibia 36.0323
rfoot -27.909 -22.6723
rtoes -3.6403
lfemur -26.8865 8.12725 -25.911
ltibia 18.167
lfoot 2.42674 14.7409
ltoes 0.795824
